<svg width="423" height="427" viewBox="0 0 423 427" fill="none" xmlns="http://www.w3.org/2000/svg">
<mask id="mask0_117_16" style="mask-type:alpha" maskUnits="userSpaceOnUse" x="0" y="0" width="423" height="427">
<rect width="423" height="427" fill="#C4C4C4"/>
</mask>
<g mask="url(#mask0_117_16)">
<path d="M399.312 157.67C404.603 156.084 410.202 159.083 411.53 164.444C423.409 212.407 417.715 263.172 395.276 307.444C372.836 351.715 335.26 386.32 289.553 405.095C284.444 407.193 278.715 404.451 276.866 399.246L267.938 374.116C266.09 368.912 268.826 363.223 273.904 361.053C308.338 346.336 336.623 319.935 353.648 286.344C370.674 252.754 375.245 214.334 366.757 177.861C365.505 172.482 368.476 166.912 373.766 165.326L399.312 157.67Z" fill="#E67D1C"/>
<path d="M402.833 171.134C408.223 169.927 411.637 164.571 410.17 159.246C397.356 112.719 368.605 72.0321 328.778 44.4068C288.952 16.7816 240.771 4.10656 192.703 8.40377C187.202 8.89555 183.382 13.9698 184.139 19.4405L187.796 45.8576C188.554 51.3282 193.603 55.1161 199.11 54.7022C235.565 51.9623 271.976 61.8036 302.18 82.7539C332.383 103.704 354.357 134.36 364.561 169.464C366.103 174.768 371.42 178.17 376.809 176.963L402.833 171.134Z" fill="#D9206D"/>
<path d="M102.721 50.1645C99.6754 45.5574 100.93 39.3306 105.679 36.5115C142.565 14.615 185.367 4.74844 228.117 8.28758C233.621 8.74325 237.475 13.7924 236.753 19.2679L233.27 45.7084C232.548 51.1839 227.524 55.0049 222.014 54.6271C190.429 52.4614 158.902 59.7288 131.452 75.5029C126.664 78.2547 120.474 77.0188 117.428 72.4117L102.721 50.1645Z" fill="#9624DC"/>
<path d="M299.035 389.802C301.507 394.741 299.515 400.773 294.463 403.003C262.226 417.231 226.827 422.995 191.636 419.666C156.446 416.337 122.756 404.037 93.7588 384.017C89.214 380.879 88.3892 374.581 91.7434 370.193L107.94 349.006C111.294 344.618 117.554 343.809 122.143 346.883C144.16 361.629 169.547 370.699 196.032 373.205C222.517 375.71 249.154 371.561 273.545 361.205C278.629 359.047 284.626 361.015 287.098 365.954L299.035 389.802Z" fill="#E0AB22"/>
<path d="M122.907 389.689C120.429 394.625 114.404 396.638 109.595 393.923C73.9664 373.818 45.0409 343.536 26.5951 306.853C8.14933 270.17 1.09173 228.892 6.19999 188.302C6.88961 182.823 12.0983 179.187 17.5381 180.141L43.8063 184.748C49.2461 185.702 52.8496 190.884 52.2375 196.373C48.8151 227.064 54.3524 258.17 68.2897 285.887C82.2269 313.604 103.894 336.6 130.571 352.155C135.342 354.937 137.353 360.92 134.875 365.856L122.907 389.689Z" fill="#D327A3"/>
<path d="M16.426 187.244C10.9549 186.49 7.10664 181.437 8.12494 176.008C14.4249 142.426 28.9722 110.876 50.5243 84.2277C72.0763 57.5798 99.8872 36.7567 131.41 23.5736C136.505 21.4428 142.251 24.1494 144.133 29.3417L153.22 54.415C155.101 59.6074 152.402 65.3131 147.337 67.5158C123.795 77.755 103.017 93.5376 86.8108 113.575C70.6049 133.613 59.5161 157.232 54.4262 182.395C53.3312 187.808 48.3161 191.641 42.8451 190.887L16.426 187.244Z" fill="#204CEA"/>
<path d="M174.864 30.1845V27.0885H180.648V44.5845H177.192V30.1845H174.864ZM183.967 35.6085C183.967 32.8405 184.463 30.6725 185.455 29.1045C186.463 27.5365 188.127 26.7525 190.447 26.7525C192.767 26.7525 194.423 27.5365 195.415 29.1045C196.423 30.6725 196.927 32.8405 196.927 35.6085C196.927 38.3925 196.423 40.5765 195.415 42.1605C194.423 43.7445 192.767 44.5365 190.447 44.5365C188.127 44.5365 186.463 43.7445 185.455 42.1605C184.463 40.5765 183.967 38.3925 183.967 35.6085ZM193.615 35.6085C193.615 34.4245 193.535 33.4325 193.375 32.6325C193.231 31.8165 192.927 31.1525 192.463 30.6405C192.015 30.1285 191.343 29.8725 190.447 29.8725C189.551 29.8725 188.871 30.1285 188.407 30.6405C187.959 31.1525 187.655 31.8165 187.495 32.6325C187.351 33.4325 187.279 34.4245 187.279 35.6085C187.279 36.8245 187.351 37.8485 187.495 38.6805C187.639 39.4965 187.943 40.1605 188.407 40.6725C188.871 41.1685 189.551 41.4165 190.447 41.4165C191.343 41.4165 192.023 41.1685 192.487 40.6725C192.951 40.1605 193.255 39.4965 193.399 38.6805C193.543 37.8485 193.615 36.8245 193.615 35.6085ZM199.099 31.3845C199.099 30.1685 199.451 29.2165 200.155 28.5285C200.875 27.8405 201.795 27.4965 202.915 27.4965C204.035 27.4965 204.947 27.8405 205.651 28.5285C206.371 29.2165 206.731 30.1685 206.731 31.3845C206.731 32.6165 206.371 33.5765 205.651 34.2645C204.947 34.9525 204.035 35.2965 202.915 35.2965C201.795 35.2965 200.875 34.9525 200.155 34.2645C199.451 33.5765 199.099 32.6165 199.099 31.3845ZM214.507 27.7845L205.075 44.5845H201.811L211.219 27.7845H214.507ZM202.891 29.5125C202.011 29.5125 201.571 30.1365 201.571 31.3845C201.571 32.6485 202.011 33.2805 202.891 33.2805C203.323 33.2805 203.659 33.1285 203.899 32.8245C204.139 32.5045 204.259 32.0245 204.259 31.3845C204.259 30.1365 203.803 29.5125 202.891 29.5125ZM209.635 40.9605C209.635 39.7285 209.987 38.7765 210.691 38.1045C211.411 37.4165 212.331 37.0725 213.451 37.0725C214.571 37.0725 215.475 37.4165 216.163 38.1045C216.867 38.7765 217.219 39.7285 217.219 40.9605C217.219 42.1925 216.867 43.1525 216.163 43.8405C215.475 44.5285 214.571 44.8725 213.451 44.8725C212.315 44.8725 211.395 44.5285 210.691 43.8405C209.987 43.1525 209.635 42.1925 209.635 40.9605ZM213.427 39.0885C212.515 39.0885 212.059 39.7125 212.059 40.9605C212.059 42.2245 212.515 42.8565 213.427 42.8565C214.323 42.8565 214.771 42.2245 214.771 40.9605C214.771 39.7125 214.323 39.0885 213.427 39.0885Z" fill="white"/>
<path d="M38.3281 310.792C39.8641 309.512 41.0881 308.448 42.0001 307.6C42.9121 306.736 43.6721 305.84 44.2801 304.912C44.8881 303.984 45.1921 303.072 45.1921 302.176C45.1921 301.36 45.0001 300.72 44.6161 300.256C44.2321 299.792 43.6401 299.56 42.8401 299.56C42.0401 299.56 41.4241 299.832 40.9921 300.376C40.5601 300.904 40.3361 301.632 40.3201 302.56H37.0561C37.1201 300.64 37.6881 299.184 38.7601 298.192C39.8481 297.2 41.2241 296.704 42.8881 296.704C44.7121 296.704 46.1121 297.192 47.0881 298.168C48.0641 299.128 48.5521 300.4 48.5521 301.984C48.5521 303.232 48.2161 304.424 47.5441 305.56C46.8721 306.696 46.1041 307.688 45.2401 308.536C44.3761 309.368 43.2481 310.376 41.8561 311.56H48.9361V314.344H37.0801V311.848L38.3281 310.792ZM51.0533 305.608C51.0533 302.84 51.5493 300.672 52.5413 299.104C53.5493 297.536 55.2133 296.752 57.5333 296.752C59.8533 296.752 61.5093 297.536 62.5013 299.104C63.5093 300.672 64.0133 302.84 64.0133 305.608C64.0133 308.392 63.5093 310.576 62.5013 312.16C61.5093 313.744 59.8533 314.536 57.5333 314.536C55.2133 314.536 53.5493 313.744 52.5413 312.16C51.5493 310.576 51.0533 308.392 51.0533 305.608ZM60.7013 305.608C60.7013 304.424 60.6213 303.432 60.4613 302.632C60.3173 301.816 60.0133 301.152 59.5493 300.64C59.1013 300.128 58.4293 299.872 57.5333 299.872C56.6373 299.872 55.9573 300.128 55.4933 300.64C55.0453 301.152 54.7413 301.816 54.5813 302.632C54.4373 303.432 54.3653 304.424 54.3653 305.608C54.3653 306.824 54.4373 307.848 54.5813 308.68C54.7253 309.496 55.0293 310.16 55.4933 310.672C55.9573 311.168 56.6373 311.416 57.5333 311.416C58.4293 311.416 59.1093 311.168 59.5733 310.672C60.0373 310.16 60.3413 309.496 60.4853 308.68C60.6293 307.848 60.7013 306.824 60.7013 305.608ZM66.1849 301.384C66.1849 300.168 66.5369 299.216 67.2409 298.528C67.9609 297.84 68.8809 297.496 70.0009 297.496C71.1209 297.496 72.0329 297.84 72.7369 298.528C73.4569 299.216 73.8169 300.168 73.8169 301.384C73.8169 302.616 73.4569 303.576 72.7369 304.264C72.0329 304.952 71.1209 305.296 70.0009 305.296C68.8809 305.296 67.9609 304.952 67.2409 304.264C66.5369 303.576 66.1849 302.616 66.1849 301.384ZM81.5929 297.784L72.1609 314.584H68.8969L78.3049 297.784H81.5929ZM69.9769 299.512C69.0969 299.512 68.6569 300.136 68.6569 301.384C68.6569 302.648 69.0969 303.28 69.9769 303.28C70.4089 303.28 70.7449 303.128 70.9849 302.824C71.2249 302.504 71.3449 302.024 71.3449 301.384C71.3449 300.136 70.8889 299.512 69.9769 299.512ZM76.7209 310.96C76.7209 309.728 77.0729 308.776 77.7769 308.104C78.4969 307.416 79.4169 307.072 80.5369 307.072C81.6569 307.072 82.5609 307.416 83.2489 308.104C83.9529 308.776 84.3049 309.728 84.3049 310.96C84.3049 312.192 83.9529 313.152 83.2489 313.84C82.5609 314.528 81.6569 314.872 80.5369 314.872C79.4009 314.872 78.4809 314.528 77.7769 313.84C77.0729 313.152 76.7209 312.192 76.7209 310.96ZM80.5129 309.088C79.6009 309.088 79.1449 309.712 79.1449 310.96C79.1449 312.224 79.6009 312.856 80.5129 312.856C81.4089 312.856 81.8569 312.224 81.8569 310.96C81.8569 309.712 81.4089 309.088 80.5129 309.088Z" fill="white"/>
<path d="M36.8641 108.184V105.088H42.6481V122.584H39.1921V108.184H36.8641ZM57.7274 107.992H49.9514V112.096C50.2874 111.68 50.7674 111.344 51.3914 111.088C52.0154 110.816 52.6794 110.68 53.3834 110.68C54.6634 110.68 55.7114 110.96 56.5274 111.52C57.3434 112.08 57.9354 112.8 58.3034 113.68C58.6714 114.544 58.8554 115.472 58.8554 116.464C58.8554 118.304 58.3274 119.784 57.2714 120.904C56.2314 122.024 54.7434 122.584 52.8074 122.584C50.9834 122.584 49.5274 122.128 48.4394 121.216C47.3514 120.304 46.7354 119.112 46.5914 117.64H49.8554C49.9994 118.28 50.3194 118.792 50.8154 119.176C51.3274 119.56 51.9754 119.752 52.7594 119.752C53.7034 119.752 54.4154 119.456 54.8954 118.864C55.3754 118.272 55.6154 117.488 55.6154 116.512C55.6154 115.52 55.3674 114.768 54.8714 114.256C54.3914 113.728 53.6794 113.464 52.7354 113.464C52.0634 113.464 51.5034 113.632 51.0554 113.968C50.6074 114.304 50.2874 114.752 50.0954 115.312H46.8794V105.04H57.7274V107.992ZM61.0287 109.384C61.0287 108.168 61.3807 107.216 62.0847 106.528C62.8047 105.84 63.7247 105.496 64.8447 105.496C65.9647 105.496 66.8767 105.84 67.5807 106.528C68.3007 107.216 68.6607 108.168 68.6607 109.384C68.6607 110.616 68.3007 111.576 67.5807 112.264C66.8767 112.952 65.9647 113.296 64.8447 113.296C63.7247 113.296 62.8047 112.952 62.0847 112.264C61.3807 111.576 61.0287 110.616 61.0287 109.384ZM76.4367 105.784L67.0047 122.584H63.7407L73.1487 105.784H76.4367ZM64.8207 107.512C63.9407 107.512 63.5007 108.136 63.5007 109.384C63.5007 110.648 63.9407 111.28 64.8207 111.28C65.2527 111.28 65.5887 111.128 65.8287 110.824C66.0687 110.504 66.1887 110.024 66.1887 109.384C66.1887 108.136 65.7327 107.512 64.8207 107.512ZM71.5647 118.96C71.5647 117.728 71.9167 116.776 72.6207 116.104C73.3407 115.416 74.2607 115.072 75.3807 115.072C76.5007 115.072 77.4047 115.416 78.0927 116.104C78.7967 116.776 79.1487 117.728 79.1487 118.96C79.1487 120.192 78.7967 121.152 78.0927 121.84C77.4047 122.528 76.5007 122.872 75.3807 122.872C74.2447 122.872 73.3247 122.528 72.6207 121.84C71.9167 121.152 71.5647 120.192 71.5647 118.96ZM75.3567 117.088C74.4447 117.088 73.9887 117.712 73.9887 118.96C73.9887 120.224 74.4447 120.856 75.3567 120.856C76.2527 120.856 76.7007 120.224 76.7007 118.96C76.7007 117.712 76.2527 117.088 75.3567 117.088Z" fill="white"/>
<path d="M321.864 86.1845V83.0885H327.648V100.584H324.192V86.1845H321.864ZM342.727 85.9925H334.951V90.0965C335.287 89.6805 335.767 89.3445 336.391 89.0885C337.015 88.8165 337.679 88.6805 338.383 88.6805C339.663 88.6805 340.711 88.9605 341.527 89.5205C342.343 90.0805 342.935 90.8005 343.303 91.6805C343.671 92.5445 343.855 93.4725 343.855 94.4645C343.855 96.3045 343.327 97.7845 342.271 98.9045C341.231 100.024 339.743 100.584 337.807 100.584C335.983 100.584 334.527 100.128 333.439 99.2165C332.351 98.3045 331.735 97.1125 331.591 95.6405H334.855C334.999 96.2805 335.319 96.7925 335.815 97.1765C336.327 97.5605 336.975 97.7525 337.759 97.7525C338.703 97.7525 339.415 97.4565 339.895 96.8645C340.375 96.2725 340.615 95.4885 340.615 94.5125C340.615 93.5205 340.367 92.7685 339.871 92.2565C339.391 91.7285 338.679 91.4645 337.735 91.4645C337.063 91.4645 336.503 91.6325 336.055 91.9685C335.607 92.3045 335.287 92.7525 335.095 93.3125H331.879V83.0405H342.727V85.9925ZM346.029 87.3845C346.029 86.1685 346.381 85.2165 347.085 84.5285C347.805 83.8405 348.725 83.4965 349.845 83.4965C350.965 83.4965 351.877 83.8405 352.581 84.5285C353.301 85.2165 353.661 86.1685 353.661 87.3845C353.661 88.6165 353.301 89.5765 352.581 90.2645C351.877 90.9525 350.965 91.2965 349.845 91.2965C348.725 91.2965 347.805 90.9525 347.085 90.2645C346.381 89.5765 346.029 88.6165 346.029 87.3845ZM361.437 83.7845L352.005 100.584H348.741L358.149 83.7845H361.437ZM349.821 85.5125C348.941 85.5125 348.501 86.1365 348.501 87.3845C348.501 88.6485 348.941 89.2805 349.821 89.2805C350.253 89.2805 350.589 89.1285 350.829 88.8245C351.069 88.5045 351.189 88.0245 351.189 87.3845C351.189 86.1365 350.733 85.5125 349.821 85.5125ZM356.565 96.9605C356.565 95.7285 356.917 94.7765 357.621 94.1045C358.341 93.4165 359.261 93.0725 360.381 93.0725C361.501 93.0725 362.405 93.4165 363.093 94.1045C363.797 94.7765 364.149 95.7285 364.149 96.9605C364.149 98.1925 363.797 99.1525 363.093 99.8405C362.405 100.528 361.501 100.872 360.381 100.872C359.245 100.872 358.325 100.528 357.621 99.8405C356.917 99.1525 356.565 98.1925 356.565 96.9605ZM360.357 95.0885C359.445 95.0885 358.989 95.7125 358.989 96.9605C358.989 98.2245 359.445 98.8565 360.357 98.8565C361.253 98.8565 361.701 98.2245 361.701 96.9605C361.701 95.7125 361.253 95.0885 360.357 95.0885Z" fill="white"/>
<path d="M354.328 298.792C355.864 297.512 357.088 296.448 358 295.6C358.912 294.736 359.672 293.84 360.28 292.912C360.888 291.984 361.192 291.072 361.192 290.176C361.192 289.36 361 288.72 360.616 288.256C360.232 287.792 359.64 287.56 358.84 287.56C358.04 287.56 357.424 287.832 356.992 288.376C356.56 288.904 356.336 289.632 356.32 290.56H353.056C353.12 288.64 353.688 287.184 354.76 286.192C355.848 285.2 357.224 284.704 358.888 284.704C360.712 284.704 362.112 285.192 363.088 286.168C364.064 287.128 364.552 288.4 364.552 289.984C364.552 291.232 364.216 292.424 363.544 293.56C362.872 294.696 362.104 295.688 361.24 296.536C360.376 297.368 359.248 298.376 357.856 299.56H364.936V302.344H353.08V299.848L354.328 298.792ZM378.813 287.992H371.037V292.096C371.373 291.68 371.853 291.344 372.477 291.088C373.101 290.816 373.765 290.68 374.469 290.68C375.749 290.68 376.797 290.96 377.613 291.52C378.429 292.08 379.021 292.8 379.389 293.68C379.757 294.544 379.941 295.472 379.941 296.464C379.941 298.304 379.413 299.784 378.357 300.904C377.317 302.024 375.829 302.584 373.893 302.584C372.069 302.584 370.613 302.128 369.525 301.216C368.437 300.304 367.821 299.112 367.677 297.64H370.941C371.085 298.28 371.405 298.792 371.901 299.176C372.413 299.56 373.061 299.752 373.845 299.752C374.789 299.752 375.501 299.456 375.981 298.864C376.461 298.272 376.701 297.488 376.701 296.512C376.701 295.52 376.453 294.768 375.957 294.256C375.477 293.728 374.765 293.464 373.821 293.464C373.149 293.464 372.589 293.632 372.141 293.968C371.693 294.304 371.373 294.752 371.181 295.312H367.965V285.04H378.813V287.992ZM382.115 289.384C382.115 288.168 382.467 287.216 383.171 286.528C383.891 285.84 384.811 285.496 385.931 285.496C387.051 285.496 387.963 285.84 388.667 286.528C389.387 287.216 389.747 288.168 389.747 289.384C389.747 290.616 389.387 291.576 388.667 292.264C387.963 292.952 387.051 293.296 385.931 293.296C384.811 293.296 383.891 292.952 383.171 292.264C382.467 291.576 382.115 290.616 382.115 289.384ZM397.523 285.784L388.091 302.584H384.827L394.235 285.784H397.523ZM385.907 287.512C385.027 287.512 384.587 288.136 384.587 289.384C384.587 290.648 385.027 291.28 385.907 291.28C386.339 291.28 386.675 291.128 386.915 290.824C387.155 290.504 387.275 290.024 387.275 289.384C387.275 288.136 386.819 287.512 385.907 287.512ZM392.651 298.96C392.651 297.728 393.003 296.776 393.707 296.104C394.427 295.416 395.347 295.072 396.467 295.072C397.587 295.072 398.491 295.416 399.179 296.104C399.883 296.776 400.235 297.728 400.235 298.96C400.235 300.192 399.883 301.152 399.179 301.84C398.491 302.528 397.587 302.872 396.467 302.872C395.331 302.872 394.411 302.528 393.707 301.84C393.003 301.152 392.651 300.192 392.651 298.96ZM396.443 297.088C395.531 297.088 395.075 297.712 395.075 298.96C395.075 300.224 395.531 300.856 396.443 300.856C397.339 300.856 397.787 300.224 397.787 298.96C397.787 297.712 397.339 297.088 396.443 297.088Z" fill="white"/>
<path d="M184.864 392.184V389.088H190.648V406.584H187.192V392.184H184.864ZM205.727 391.992H197.951V396.096C198.287 395.68 198.767 395.344 199.391 395.088C200.015 394.816 200.679 394.68 201.383 394.68C202.663 394.68 203.711 394.96 204.527 395.52C205.343 396.08 205.935 396.8 206.303 397.68C206.671 398.544 206.855 399.472 206.855 400.464C206.855 402.304 206.327 403.784 205.271 404.904C204.231 406.024 202.743 406.584 200.807 406.584C198.983 406.584 197.527 406.128 196.439 405.216C195.351 404.304 194.735 403.112 194.591 401.64H197.855C197.999 402.28 198.319 402.792 198.815 403.176C199.327 403.56 199.975 403.752 200.759 403.752C201.703 403.752 202.415 403.456 202.895 402.864C203.375 402.272 203.615 401.488 203.615 400.512C203.615 399.52 203.367 398.768 202.871 398.256C202.391 397.728 201.679 397.464 200.735 397.464C200.063 397.464 199.503 397.632 199.055 397.968C198.607 398.304 198.287 398.752 198.095 399.312H194.879V389.04H205.727V391.992ZM209.029 393.384C209.029 392.168 209.381 391.216 210.085 390.528C210.805 389.84 211.725 389.496 212.845 389.496C213.965 389.496 214.877 389.84 215.581 390.528C216.301 391.216 216.661 392.168 216.661 393.384C216.661 394.616 216.301 395.576 215.581 396.264C214.877 396.952 213.965 397.296 212.845 397.296C211.725 397.296 210.805 396.952 210.085 396.264C209.381 395.576 209.029 394.616 209.029 393.384ZM224.437 389.784L215.005 406.584H211.741L221.149 389.784H224.437ZM212.821 391.512C211.941 391.512 211.501 392.136 211.501 393.384C211.501 394.648 211.941 395.28 212.821 395.28C213.253 395.28 213.589 395.128 213.829 394.824C214.069 394.504 214.189 394.024 214.189 393.384C214.189 392.136 213.733 391.512 212.821 391.512ZM219.565 402.96C219.565 401.728 219.917 400.776 220.621 400.104C221.341 399.416 222.261 399.072 223.381 399.072C224.501 399.072 225.405 399.416 226.093 400.104C226.797 400.776 227.149 401.728 227.149 402.96C227.149 404.192 226.797 405.152 226.093 405.84C225.405 406.528 224.501 406.872 223.381 406.872C222.245 406.872 221.325 406.528 220.621 405.84C219.917 405.152 219.565 404.192 219.565 402.96ZM223.357 401.088C222.445 401.088 221.989 401.712 221.989 402.96C221.989 404.224 222.445 404.856 223.357 404.856C224.253 404.856 224.701 404.224 224.701 402.96C224.701 401.712 224.253 401.088 223.357 401.088Z" fill="white"/>
</g>
</svg>
